<svg width="80" height="80" viewBox="0 0 223 172" fill="none" xmlns="http://www.w3.org/2000/svg">
<path d="M188.902 14.3275C174.467 7.63424 159.032 2.76984 142.896 0C140.914 3.55083 138.599 8.32678 137.002 12.126C119.849 9.56946 102.853 9.56946 86.0144 12.126C84.4184 8.32678 82.0506 3.55083 80.0511 0C63.897 2.76984 48.4445 7.65212 34.0093 14.363C4.89339 57.9663 -2.99945 100.487 0.946975 142.403C20.2582 156.695 38.973 165.377 57.3721 171.058C61.9149 164.862 65.9665 158.275 69.4568 151.333C62.8094 148.83 56.4425 145.741 50.4266 142.155C52.0226 140.983 53.5837 139.758 55.092 138.497C91.7849 155.506 131.653 155.506 167.907 138.497C169.433 139.758 170.994 140.983 172.573 142.155C166.539 145.759 160.155 148.848 153.507 151.351C156.998 158.275 161.032 164.88 165.592 171.076C184.009 165.394 202.741 156.713 222.052 142.403C226.683 93.8112 214.142 51.6814 188.902 14.3275ZM74.4558 116.625C63.4409 116.625 54.4078 106.434 54.4078 94.0242C54.4078 81.6143 63.248 71.4059 74.4558 71.4059C85.6638 71.4059 94.6966 81.5964 94.5037 94.0242C94.5211 106.434 85.6638 116.625 74.4558 116.625ZM148.543 116.625C137.529 116.625 128.496 106.434 128.496 94.0242C128.496 81.6143 137.335 71.4059 148.543 71.4059C159.751 71.4059 168.784 81.5964 168.591 94.0242C168.591 106.434 159.751 116.625 148.543 116.625Z" fill="#5865F2"/>
</svg>
